<svg width="26" height="24" viewBox="0 0 26 24" fill="none" xmlns="http://www.w3.org/2000/svg">
<path d="M13 23.0341C20.1797 23.0341 26 17.8777 26 11.517C26 5.15635 20.1797 0 13 0C5.8203 0 0 5.15635 0 11.517C0 17.8777 5.8203 23.0341 13 23.0341Z" fill="#FFDD67"/>
<path d="M6.50003 14.9724C9.13259 14.9724 11.2667 13.0818 11.2667 10.7495C11.2667 8.41727 9.13259 6.52661 6.50003 6.52661C3.86748 6.52661 1.73337 8.41727 1.73337 10.7495C1.73337 13.0818 3.86748 14.9724 6.50003 14.9724Z" fill="white"/>
<path d="M19.5001 14.9724C22.1326 14.9724 24.2667 13.0818 24.2667 10.7495C24.2667 8.41727 22.1326 6.52661 19.5001 6.52661C16.8675 6.52661 14.7334 8.41727 14.7334 10.7495C14.7334 13.0818 16.8675 14.9724 19.5001 14.9724Z" fill="white"/>
<path d="M14.7334 9.59709C13.9534 9.09802 12.0467 9.09802 11.2667 9.59709C10.79 9.21319 10.8767 8.7909 10.4 8.407C11.7434 7.52403 14.04 7.37046 15.6 8.407C15.1234 8.7909 15.21 9.21319 14.7334 9.59709Z" fill="#494949"/>
<path d="M19.5 5.75854C16.38 5.75854 13.8667 7.98517 13.8667 10.7493C13.8667 13.5133 16.38 15.74 19.5 15.74C22.62 15.74 25.1333 13.5133 25.1333 10.7493C25.1333 7.98517 22.62 5.75854 19.5 5.75854ZM19.5 14.5883C17.1167 14.5883 15.1667 12.8607 15.1667 10.7493C15.1667 8.6378 17.1167 6.91025 19.5 6.91025C21.8833 6.91025 23.8333 8.6378 23.8333 10.7493C23.8333 12.8607 21.8833 14.5883 19.5 14.5883ZM6.5 5.75854C3.38 5.75854 0.866669 7.98517 0.866669 10.7493C0.866669 13.5133 3.38 15.74 6.5 15.74C9.62 15.74 12.1333 13.5133 12.1333 10.7493C12.1333 7.98517 9.62 5.75854 6.5 5.75854ZM6.5 14.5883C4.11667 14.5883 2.16667 12.8607 2.16667 10.7493C2.16667 8.6378 4.11667 6.91025 6.5 6.91025C8.88334 6.91025 10.8333 8.6378 10.8333 10.7493C10.8333 12.8607 8.88334 14.5883 6.5 14.5883Z" fill="#494949"/>
<path d="M7.80001 12.861C8.75731 12.861 9.53335 12.0016 9.53335 10.9415C9.53335 9.88136 8.75731 9.02197 7.80001 9.02197C6.84272 9.02197 6.06668 9.88136 6.06668 10.9415C6.06668 12.0016 6.84272 12.861 7.80001 12.861Z" fill="#664E27"/>
<path d="M18.2 12.861C19.1573 12.861 19.9333 12.0016 19.9333 10.9415C19.9333 9.88136 19.1573 9.02197 18.2 9.02197C17.2427 9.02197 16.4667 9.88136 16.4667 10.9415C16.4667 12.0016 17.2427 12.861 18.2 12.861Z" fill="#664E27"/>
<path d="M10.7033 18.9264C13.2167 19.5023 15.9033 19.08 18.0267 17.7747C18.5467 17.4292 17.55 16.2391 17.03 16.5462C15.6433 17.4292 13.39 18.0051 11.0933 17.4676C10.53 17.3524 10.0533 18.7729 10.7033 18.9264Z" fill="#664E27"/>
<path d="M22.1867 5.25924C20.8 4.22271 18.9367 3.76203 17.1167 4.06915C16.8567 4.10754 16.64 3.30135 16.9433 3.22457C19.0233 2.87906 21.19 3.41652 22.7933 4.60661C23.0533 4.79856 22.36 5.4128 22.1867 5.25924ZM8.88333 3.99237C7.06333 3.72364 5.2 4.14593 3.81333 5.18246C3.64 5.33602 2.94666 4.72178 3.20666 4.52983C4.81 3.30135 6.97666 2.80228 9.05666 3.14779C9.36 3.22457 9.14333 4.03076 8.88333 3.99237Z" fill="#917524"/>
</svg>
