<svg width="25" height="25" viewBox="0 0 25 25" fill="none" xmlns="http://www.w3.org/2000/svg">
<path d="M20 11.025C19.6685 11.025 19.3505 11.1567 19.1161 11.3911C18.8817 11.6255 18.75 11.9435 18.75 12.275V21.25C18.75 21.5815 18.6183 21.8995 18.3839 22.1339C18.1495 22.3683 17.8315 22.5 17.5 22.5H3.75C3.41848 22.5 3.10054 22.3683 2.86612 22.1339C2.6317 21.8995 2.5 21.5815 2.5 21.25V7.5C2.5 7.16848 2.6317 6.85054 2.86612 6.61612C3.10054 6.3817 3.41848 6.25 3.75 6.25H12.725C13.0565 6.25 13.3745 6.1183 13.6089 5.88388C13.8433 5.64946 13.975 5.33152 13.975 5C13.975 4.66848 13.8433 4.35054 13.6089 4.11612C13.3745 3.8817 13.0565 3.75 12.725 3.75H3.75C2.75544 3.75 1.80161 4.14509 1.09835 4.84835C0.395088 5.55161 0 6.50544 0 7.5V21.25C0 22.2446 0.395088 23.1984 1.09835 23.9017C1.80161 24.6049 2.75544 25 3.75 25H17.5C18.4946 25 19.4484 24.6049 20.1517 23.9017C20.8549 23.1984 21.25 22.2446 21.25 21.25V12.275C21.25 11.9435 21.1183 11.6255 20.8839 11.3911C20.6495 11.1567 20.3315 11.025 20 11.025ZM24.9 0.775C24.7732 0.469563 24.5304 0.226844 24.225 0.0999999C24.0747 0.0359487 23.9133 0.00197498 23.75 0H16.25C15.9185 0 15.6005 0.131696 15.3661 0.366116C15.1317 0.600537 15 0.918479 15 1.25C15 1.58152 15.1317 1.89946 15.3661 2.13388C15.6005 2.3683 15.9185 2.5 16.25 2.5H20.7375L7.8625 15.3625C7.74534 15.4787 7.65235 15.617 7.58889 15.7693C7.52543 15.9216 7.49275 16.085 7.49275 16.25C7.49275 16.415 7.52543 16.5784 7.58889 16.7307C7.65235 16.883 7.74534 17.0213 7.8625 17.1375C7.9787 17.2547 8.11696 17.3477 8.26928 17.4111C8.4216 17.4746 8.58498 17.5072 8.75 17.5072C8.91502 17.5072 9.0784 17.4746 9.23072 17.4111C9.38304 17.3477 9.5213 17.2547 9.6375 17.1375L22.5 4.2625V8.75C22.5 9.08152 22.6317 9.39946 22.8661 9.63388C23.1005 9.8683 23.4185 10 23.75 10C24.0815 10 24.3995 9.8683 24.6339 9.63388C24.8683 9.39946 25 9.08152 25 8.75V1.25C24.998 1.08665 24.9641 0.925278 24.9 0.775Z" fill="white"/>
</svg>
