<svg width="15" height="14" viewBox="0 0 15 14" fill="none" xmlns="http://www.w3.org/2000/svg">
<path d="M7.5 0C6.01664 0 4.56659 0.410543 3.33323 1.17971C2.09986 1.94888 1.13856 3.04213 0.570907 4.32121C0.00324963 5.6003 -0.145275 7.00776 0.144114 8.36563C0.433503 9.7235 1.14781 10.9708 2.1967 11.9497C3.2456 12.9287 4.58197 13.5954 6.03683 13.8655C7.49168 14.1356 8.99968 13.997 10.3701 13.4672C11.7406 12.9373 12.9119 12.0401 13.736 10.889C14.5601 9.73784 15 8.38447 15 7C14.9978 5.14412 14.2069 3.36484 12.8009 2.05253C11.3948 0.740225 9.48845 0.002064 7.5 0ZM7.5 12.6C6.31331 12.6 5.15328 12.2716 4.16658 11.6562C3.17989 11.0409 2.41085 10.1663 1.95673 9.14302C1.5026 8.11976 1.38378 6.99379 1.61529 5.90749C1.8468 4.8212 2.41825 3.82337 3.25736 3.0402C4.09648 2.25703 5.16558 1.72368 6.32946 1.5076C7.49335 1.29153 8.69975 1.40242 9.7961 1.82627C10.8925 2.25012 11.8295 2.96789 12.4888 3.88881C13.1481 4.80972 13.5 5.89242 13.5 7C13.4982 8.48469 12.8655 9.90808 11.7406 10.9579C10.6158 12.0078 9.09074 12.5983 7.5 12.6ZM7.5 6.65C7.30109 6.65 7.11032 6.72375 6.96967 6.85502C6.82902 6.9863 6.75 7.16435 6.75 7.35V9.45C6.75 9.63565 6.82902 9.8137 6.96967 9.94497C7.11032 10.0762 7.30109 10.15 7.5 10.15C7.69891 10.15 7.88968 10.0762 8.03033 9.94497C8.17098 9.8137 8.25 9.63565 8.25 9.45V7.35C8.25 7.16435 8.17098 6.9863 8.03033 6.85502C7.88968 6.72375 7.69891 6.65 7.5 6.65ZM7.5 3.85C7.31458 3.85 7.13333 3.90132 6.97916 3.99746C6.82498 4.09361 6.70482 4.23027 6.63387 4.39015C6.56291 4.55004 6.54434 4.72597 6.58052 4.8957C6.61669 5.06544 6.70598 5.22135 6.83709 5.34372C6.9682 5.46609 7.13525 5.54942 7.31711 5.58319C7.49896 5.61695 7.68746 5.59962 7.85877 5.53339C8.03007 5.46717 8.17649 5.35502 8.2795 5.21112C8.38252 5.06723 8.4375 4.89806 8.4375 4.725C8.4375 4.49293 8.33873 4.27037 8.16292 4.10628C7.9871 3.94219 7.74864 3.85 7.5 3.85Z" fill="#F2F2F2"/>
</svg>
