<svg width="23" height="23" viewBox="0 0 23 23" fill="none" xmlns="http://www.w3.org/2000/svg">
<path d="M12.65 16.1014H5.75001C5.44501 16.1014 5.1525 16.2225 4.93684 16.4381C4.72117 16.6538 4.60001 16.9462 4.60001 17.2511C4.60001 17.5561 4.72117 17.8485 4.93684 18.0642C5.1525 18.2798 5.44501 18.4009 5.75001 18.4009H12.65C12.955 18.4009 13.2475 18.2798 13.4632 18.0642C13.6788 17.8485 13.8 17.5561 13.8 17.2511C13.8 16.9462 13.6788 16.6538 13.4632 16.4381C13.2475 16.2225 12.955 16.1014 12.65 16.1014ZM8.05001 9.20274H10.35C10.655 9.20274 10.9475 9.0816 11.1632 8.86598C11.3788 8.65036 11.5 8.35791 11.5 8.05297C11.5 7.74803 11.3788 7.45558 11.1632 7.23996C10.9475 7.02433 10.655 6.9032 10.35 6.9032H8.05001C7.74501 6.9032 7.4525 7.02433 7.23683 7.23996C7.02117 7.45558 6.90001 7.74803 6.90001 8.05297C6.90001 8.35791 7.02117 8.65036 7.23683 8.86598C7.4525 9.0816 7.74501 9.20274 8.05001 9.20274ZM21.85 11.5023H18.4V1.15434C18.4008 0.95174 18.3481 0.752523 18.2471 0.576864C18.1461 0.401204 18.0005 0.25534 17.825 0.15404C17.6502 0.0531267 17.4519 0 17.25 0C17.0481 0 16.8498 0.0531267 16.675 0.15404L13.225 2.13165L9.77501 0.15404C9.60018 0.0531267 9.40187 0 9.20001 0C8.99814 0 8.79983 0.0531267 8.62501 0.15404L5.17501 2.13165L1.72501 0.15404C1.55019 0.0531267 1.35188 0 1.15001 0C0.948142 0 0.749831 0.0531267 0.575009 0.15404C0.399514 0.25534 0.253908 0.401204 0.152934 0.576864C0.0519602 0.752523 -0.000795437 0.95174 9.06531e-06 1.15434V19.5507C9.06531e-06 20.4655 0.36349 21.3428 1.01049 21.9897C1.65749 22.6366 2.53501 23 3.45001 23H19.55C20.465 23 21.3425 22.6366 21.9895 21.9897C22.6365 21.3428 23 20.4655 23 19.5507V12.6521C23 12.3471 22.8788 12.0547 22.6632 11.839C22.4475 11.6234 22.155 11.5023 21.85 11.5023ZM3.45001 20.7005C3.14501 20.7005 2.8525 20.5793 2.63684 20.3637C2.42117 20.1481 2.30001 19.8556 2.30001 19.5507V3.14345L4.60001 4.45419C4.7775 4.54687 4.97477 4.59528 5.17501 4.59528C5.37525 4.59528 5.57252 4.54687 5.75001 4.45419L9.20001 2.47658L12.65 4.45419C12.8275 4.54687 13.0248 4.59528 13.225 4.59528C13.4252 4.59528 13.6225 4.54687 13.8 4.45419L16.1 3.14345V19.5507C16.1031 19.9429 16.1731 20.3318 16.307 20.7005H3.45001ZM20.7 19.5507C20.7 19.8556 20.5788 20.1481 20.3632 20.3637C20.1475 20.5793 19.855 20.7005 19.55 20.7005C19.245 20.7005 18.9525 20.5793 18.7368 20.3637C18.5212 20.1481 18.4 19.8556 18.4 19.5507V13.8018H20.7V19.5507ZM12.65 11.5023H5.75001C5.44501 11.5023 5.1525 11.6234 4.93684 11.839C4.72117 12.0547 4.60001 12.3471 4.60001 12.6521C4.60001 12.957 4.72117 13.2494 4.93684 13.4651C5.1525 13.6807 5.44501 13.8018 5.75001 13.8018H12.65C12.955 13.8018 13.2475 13.6807 13.4632 13.4651C13.6788 13.2494 13.8 12.957 13.8 12.6521C13.8 12.3471 13.6788 12.0547 13.4632 11.839C13.2475 11.6234 12.955 11.5023 12.65 11.5023Z" fill="white"/>
</svg>
