<svg width="250" height="68" viewBox="0 0 250 68" fill="none" xmlns="http://www.w3.org/2000/svg">
<g clip-path="url(#clip0_172_2874)">
<mask id="mask0_172_2874" style="mask-type:luminance" maskUnits="userSpaceOnUse" x="0" y="0" width="250" height="68">
<path d="M250 0H0V68H250V0Z" fill="white"/>
</mask>
<g mask="url(#mask0_172_2874)">
<path d="M69.9412 53.4216C80.497 68.68 101.227 72.357 116.246 61.6304C131.262 50.9038 134.877 29.8384 124.325 14.5799C113.769 -0.678519 93.0386 -4.35546 78.023 6.37108C74.8858 8.61348 72.1516 11.3884 69.9448 14.5799C68.1944 14.1054 66.387 13.8735 64.576 13.8808C59.332 13.7866 54.2874 15.9022 50.637 19.7276C46.9044 23.4952 44.8474 28.6538 44.9438 34.0008C44.8332 39.3514 46.8796 44.5172 50.605 48.2992C54.2696 52.1174 59.3248 54.2258 64.5724 54.1206C66.387 54.128 68.1908 53.8924 69.9412 53.4216ZM73.9018 51.8276C80.2938 48.263 84.2296 41.409 84.1476 34.0008C84.2118 26.5998 80.276 19.7602 73.8948 16.1884C83.5808 3.1542 101.83 0.564037 114.66 10.403C127.487 20.2456 130.036 38.7898 120.353 51.8276C110.667 64.8618 92.4184 67.4518 79.588 57.6128C77.4348 55.961 75.5204 54.0156 73.8948 51.8276H73.9018ZM71.7094 19.5827C73.1462 20.3544 74.451 21.3506 75.5774 22.5352C78.5328 25.5854 80.1512 29.7188 80.0586 33.9972C80.162 38.2862 78.5436 42.4378 75.5774 45.4916C74.4474 46.669 73.1462 47.6544 71.713 48.4188C66.7792 39.4564 66.7792 28.5378 71.713 19.5755L71.7094 19.5827ZM67.763 18.1808C62.5938 28.0742 62.5938 39.9274 67.763 49.8206C66.715 50.0236 65.649 50.125 64.583 50.1214C60.4264 50.2082 56.4194 48.531 53.5282 45.4952C50.5622 42.4378 48.9472 38.2898 49.047 34.0008C48.9542 29.7188 50.5728 25.5854 53.5282 22.5316C56.4086 19.4813 60.4156 17.7932 64.576 17.8765C65.6454 17.8729 66.7114 17.9743 67.763 18.1808Z" fill="#02DE82"/>
<path d="M32.74 39.6918C31.9238 42.561 30.1662 45.057 27.7562 46.7704C25.275 48.4658 22.341 49.3352 19.3536 49.2664C15.3965 49.3462 11.5856 47.734 8.85842 44.8178C6.04566 41.927 4.5056 38.0002 4.59116 33.9356C4.49492 29.8602 6.03496 25.9186 8.85842 23.0242C11.5927 20.1262 15.4001 18.5213 19.3536 18.6047C22.3518 18.5322 25.2964 19.4125 27.7812 21.1188C30.1734 22.8032 31.9238 25.2738 32.74 28.114L36.9324 26.8824C35.863 23.2018 33.5778 20.0102 30.4622 17.8439C27.2038 15.558 23.3214 14.3734 19.3643 14.4568C14.2558 14.3481 9.329 16.3912 5.75692 20.1044C2.1064 23.7342 0.0957273 28.737 0.199111 33.9282C0.0957273 39.1194 2.1064 44.1224 5.75692 47.7522C9.329 51.4618 14.2522 53.5048 19.3608 53.3998C23.3322 53.4904 27.2322 52.295 30.4906 49.9874C33.6278 47.7376 35.9058 44.4556 36.9324 40.699L32.74 39.6918Z" fill="#02DE82"/>
<path d="M152.783 52.6826H156.975L173.046 15.1851H168.312L154.876 46.6366L141.439 15.1851H136.705L152.783 52.6826Z" fill="#02DE82"/>
<path d="M207.99 52.6824H181.057V15.1812H207.932V19.1624H185.413V31.8668H206.342V35.8408H185.413V48.6612H207.994L207.99 52.6824Z" fill="#02DE82"/>
<path d="M230.18 36.6196L244.288 52.6824H249.742L235.478 36.6196H236.134C239.304 36.7682 242.416 35.7104 244.862 33.6564C247.072 31.7074 248.298 28.8492 248.194 25.875C248.298 22.9118 247.072 20.0608 244.862 18.1262C242.408 16.0867 239.3 15.0362 236.134 15.1883H219.054V52.686H223.404V36.6232H230.18V36.6196ZM241.72 30.7402C240.142 32.0298 238.152 32.6854 236.13 32.584H223.412V19.1587H236.13C238.152 19.0609 240.142 19.7166 241.72 21.0026C243.126 22.209 243.906 24.0022 243.842 25.8714C243.906 27.7406 243.122 29.5338 241.72 30.7402Z" fill="#02DE82"/>
</g>
</g>
<defs>
<clipPath id="clip0_172_2874">
<rect width="250" height="68" fill="white"/>
</clipPath>
</defs>
</svg>
