<svg width="94" height="99" viewBox="0 0 94 99" fill="none" xmlns="http://www.w3.org/2000/svg">
<path d="M24.0016 69.2065C34.1352 84.6893 54.0361 88.4203 68.4546 77.536C82.8695 66.6516 86.3399 45.2764 76.2096 29.7936C66.0761 14.3107 46.1751 10.5797 31.7601 21.464C28.7484 23.7394 26.1236 26.5551 24.005 29.7936C22.3247 29.312 20.5896 29.0768 18.851 29.0841C13.8168 28.9885 8.97394 31.1353 5.46956 35.017C1.88627 38.84 -0.0884531 44.0744 0.00409089 49.5001C-0.102085 54.9293 1.86246 60.1711 5.43884 64.0087C8.95685 67.8831 13.8098 70.0225 18.8475 69.9157C20.5896 69.9233 22.3212 69.6842 24.0016 69.2065ZM27.8038 67.589C33.9401 63.972 37.7184 57.0172 37.6397 49.5001C37.7014 41.9902 33.923 35.0501 27.797 31.4257C37.0956 18.1998 54.6146 15.5716 66.9316 25.5553C79.2454 35.5426 81.6924 54.3595 72.3971 67.589C63.0985 80.8149 45.5797 83.443 33.2625 73.4593C31.1954 71.7832 29.3576 69.8092 27.797 67.589H27.8038ZM25.6991 34.87C27.0784 35.653 28.331 36.6638 29.4123 37.8658C32.2495 40.9609 33.8032 45.1551 33.7143 49.4964C33.8136 53.8485 32.2599 58.0611 29.4123 61.1598C28.3275 62.3546 27.0784 63.3545 25.7025 64.1301C20.9661 55.0359 20.9661 43.9567 25.7025 34.8626L25.6991 34.87ZM21.9105 33.4474C16.9481 43.4863 16.9481 55.5138 21.9105 65.5525C20.9044 65.7585 19.8811 65.8614 18.8577 65.8577C14.8674 65.9458 11.0207 64.2439 8.24511 61.1635C5.39775 58.0611 3.84735 53.8521 3.94316 49.5001C3.85407 45.1551 5.40793 40.9609 8.24511 37.8622C11.0103 34.767 14.857 33.0541 18.851 33.1386C19.8776 33.1349 20.901 33.2379 21.9105 33.4474Z" fill="#02DE82"/>
</svg>
