<svg width="17" height="19" viewBox="0 0 17 19" fill="none" xmlns="http://www.w3.org/2000/svg">
<path d="M16.5486 17.1422L13.437 13.6971C14.6448 12.0161 15.2298 9.88245 15.0715 7.73486C14.9132 5.58728 14.0238 3.589 12.5861 2.1509C11.1484 0.71281 9.27176 -0.0557861 7.34198 0.00315581C5.41219 0.0620978 3.57597 0.944097 2.21089 2.4678C0.845814 3.9915 0.0556332 6.04108 0.00282728 8.19511C-0.0499786 10.3491 0.638604 12.4439 1.92699 14.0486C3.21537 15.6534 5.00563 16.6461 6.92964 16.8228C8.85366 16.9994 10.7652 16.3465 12.2712 14.9984L15.3577 18.4435C15.4356 18.5312 15.5284 18.6009 15.6306 18.6484C15.7328 18.6959 15.8424 18.7204 15.9531 18.7204C16.0639 18.7204 16.1735 18.6959 16.2757 18.6484C16.3779 18.6009 16.4707 18.5312 16.5486 18.4435C16.6998 18.2689 16.7843 18.0356 16.7843 17.7928C16.7843 17.5501 16.6998 17.3168 16.5486 17.1422ZM7.56598 14.9984C6.4048 14.9984 5.2697 14.614 4.30422 13.8939C3.33873 13.1739 2.58623 12.1504 2.14187 10.953C1.6975 9.75551 1.58124 8.43787 1.80777 7.16667C2.03431 5.89547 2.59347 4.7278 3.41454 3.81131C4.23562 2.89483 5.28173 2.27069 6.4206 2.01783C7.55946 1.76498 8.73993 1.89475 9.81272 2.39075C10.8855 2.88675 11.8024 3.72669 12.4475 4.80436C13.0927 5.88204 13.437 7.14904 13.437 8.44514C13.437 10.1832 12.8184 11.85 11.7174 13.079C10.6164 14.3079 9.12307 14.9984 7.56598 14.9984Z" fill="#7D7D7D"/>
</svg>
